<svg width="154" height="70" viewBox="0 0 154 70" fill="none" xmlns="http://www.w3.org/2000/svg">
  <path d="M109.289 21.9131V44.3139C109.291 44.3959 109.276 44.4774 109.246 44.5535C109.215 44.6297 109.169 44.6988 109.111 44.7568C109.052 44.8148 108.983 44.8604 108.906 44.8909C108.83 44.9214 108.748 44.9362 108.665 44.9343H104.07C103.987 44.9362 103.905 44.9214 103.829 44.8909C103.752 44.8604 103.683 44.8148 103.624 44.7568C103.566 44.6988 103.52 44.6297 103.489 44.5535C103.459 44.4774 103.444 44.3959 103.446 44.3139V21.9131C103.444 21.8311 103.459 21.7496 103.489 21.6734C103.52 21.5973 103.566 21.5282 103.624 21.4702C103.683 21.4122 103.752 21.3666 103.829 21.3361C103.905 21.3055 103.987 21.2908 104.07 21.2927H108.665C108.748 21.2908 108.83 21.3055 108.906 21.3361C108.983 21.3666 109.052 21.4122 109.111 21.4702C109.169 21.5282 109.215 21.5973 109.246 21.6734C109.276 21.7496 109.291 21.8311 109.289 21.9131ZM145.161 21.2927C145.34 21.2927 145.563 21.3809 145.785 21.5588C145.92 21.6911 145.92 21.9131 145.875 22.0909L138.29 44.5359C138.244 44.652 138.164 44.752 138.061 44.8231C137.958 44.8943 137.836 44.9335 137.71 44.9357H133.606C133.338 44.9357 133.115 44.8019 133.026 44.5359L128.606 31.4508L124.19 44.5345C124.144 44.6506 124.064 44.7506 123.961 44.8218C123.858 44.8929 123.736 44.9321 123.61 44.9343H119.505C119.238 44.9343 119.014 44.8019 118.926 44.5345L111.34 22.0895C111.296 21.9131 111.296 21.7352 111.429 21.5588C111.519 21.3809 111.742 21.2927 111.92 21.2927H117.051C117.318 21.2927 117.542 21.4691 117.632 21.7352L121.691 34.9981L126.153 21.7352C126.199 21.6191 126.279 21.5191 126.382 21.4479C126.485 21.3768 126.607 21.3376 126.733 21.3354H130.347C130.614 21.3354 130.838 21.4691 130.926 21.7352L135.389 34.9981L139.449 21.7352C139.486 21.6096 139.562 21.4988 139.666 21.4192C139.77 21.3396 139.897 21.2952 140.029 21.2927H145.16H145.161ZM152.924 21.2927C153.236 21.2927 153.504 21.5588 153.548 21.9131V44.3139C153.55 44.3959 153.535 44.4774 153.504 44.5535C153.474 44.6297 153.428 44.6988 153.37 44.7568C153.311 44.8148 153.242 44.8604 153.165 44.8909C153.089 44.9214 153.007 44.9362 152.924 44.9343H148.328C148.246 44.9362 148.164 44.9214 148.087 44.8909C148.011 44.8604 147.941 44.8148 147.883 44.7568C147.825 44.6988 147.779 44.6297 147.748 44.5535C147.717 44.4774 147.703 44.3959 147.704 44.3139V21.9131C147.703 21.8311 147.717 21.7496 147.748 21.6734C147.779 21.5973 147.825 21.5282 147.883 21.4702C147.941 21.4122 148.011 21.3666 148.087 21.3361C148.164 21.3055 148.246 21.2908 148.328 21.2927H152.924ZM100.768 44.1374C101.036 44.4476 100.812 44.8902 100.41 44.8902H94.7883C94.6776 44.8932 94.5677 44.8707 94.4672 44.8245C94.3666 44.7784 94.2782 44.7098 94.2087 44.6241L93.2726 43.4715C91.309 44.7123 88.9876 45.4679 86.5345 45.4679C79.6647 45.4679 74.0873 39.9228 74.0873 33.0914C74.0873 26.2601 79.6647 20.715 86.5345 20.715C93.4057 20.715 98.9832 26.2601 98.9832 33.0914C98.9832 35.5317 98.269 37.8382 97.0196 39.7891L100.768 44.136V44.1374ZM53.7856 43.8931C54.9463 44.337 55.3928 46.0659 55.4815 46.82C55.6604 48.1959 55.2597 48.7281 54.8131 48.7281C54.3666 48.7281 53.7412 48.1959 53.0728 47.1316C52.403 46.0659 52.1354 44.8692 52.4932 44.2474C52.715 43.8476 53.2059 43.6711 53.787 43.8931H53.7856ZM47.0045 48.906C47.7187 48.906 48.5216 49.2162 49.2357 49.8366C50.6183 50.9905 51.0204 52.321 50.3063 53.2971C49.9041 53.7851 49.2357 54.0953 48.4772 54.0953C47.7187 54.0953 46.9157 53.8292 46.3805 53.3412C45.131 52.2768 44.7746 50.5011 45.5762 49.5264C45.8896 49.1266 46.3805 48.906 47.0045 48.906ZM31.3899 61.7249C14.4344 61.7249 0.693363 48.0622 0.693363 31.2065C0.693363 14.3507 14.4358 0.689331 31.3886 0.689331C48.3427 0.689331 62.0851 14.3521 62.0851 31.2065C62.0851 36.928 60.4793 42.2966 57.7585 46.8655C57.6684 46.9979 57.4451 46.9538 57.4008 46.7759C56.3302 39.28 51.7346 35.1536 45.0423 33.9128C44.4612 33.8232 44.3725 33.4689 45.131 33.3806C47.1834 33.2028 50.083 33.2469 51.6001 33.513C51.6888 32.7588 51.7346 31.9606 51.7346 31.1623C51.7346 20.0281 42.6321 10.9784 31.4329 10.9784C20.2351 10.9784 11.1326 20.0281 11.1326 31.1623C11.1326 42.2966 20.2351 51.3462 31.4343 51.3462H32.3704C32.0524 49.5453 31.9176 47.7172 31.9682 45.8894C32.014 44.6472 32.2816 44.4694 32.8169 45.4455C35.6278 50.2805 39.6437 54.6275 47.4954 56.3577C53.9201 57.7778 60.3448 59.4184 67.2604 68.1565C67.8844 68.9106 66.9484 69.7089 66.2342 69.0885C59.1855 62.8775 52.7608 60.8371 46.9157 60.8371C40.3565 60.8826 35.8954 61.7249 31.3886 61.7249H31.3899ZM89.613 39.1687L87.1585 36.1962C86.8923 35.886 87.1155 35.398 87.5163 35.398H92.6916C92.9592 34.6879 93.0937 33.8897 93.0937 33.0914C93.0937 29.4103 90.3272 26.2159 86.5345 26.2159C82.7432 26.2159 79.9753 29.4103 79.9753 33.0914C79.9753 36.7725 82.7432 39.9228 86.5345 39.9228C87.6051 39.9669 88.677 39.6567 89.613 39.1687Z" fill="#FF8C00"/>
</svg>