<svg width="168" height="35" viewBox="0 0 168 35" fill="none" xmlns="http://www.w3.org/2000/svg">
  <g clip-path="url(#clip0_5_19)">
  <path d="M31.851 0C22.0848 0 14.3163 7.86394 14.3163 17.5C14.3163 27.2468 22.1958 35 31.851 35C41.5061 35 49.3857 27.1361 49.3857 17.5C49.4966 7.86394 41.5061 0 31.851 0ZM31.851 24.0348C28.2996 24.0348 25.3032 21.0443 25.3032 17.5C25.3032 13.9557 28.2996 10.9652 31.851 10.9652C35.4023 10.9652 38.3987 13.9557 38.3987 17.5C38.3987 21.0443 35.5133 24.0348 31.851 24.0348Z" fill="#8B3FFD"/>
  <path d="M14.3163 5.09509V30.5698H7.99049L0 5.09509H14.3163Z" fill="#8B3FFD"/>
  <path d="M162.251 9.63612L158.367 19.1614C158.256 19.2722 158.256 19.4937 158.256 19.6045L158.145 19.826L158.034 19.6045C158.034 19.4937 157.923 19.2722 157.923 19.1614L154.039 9.63612H149.045L155.592 25.9178L152.818 32.1203H157.812L167.023 9.63612H162.251Z" fill="black"/>
  <path d="M125.406 10.5222C124.518 9.8576 123.408 9.41457 122.076 9.30383C119.857 9.08228 117.749 9.8576 116.306 11.2975V9.52538H111.756V25.807H116.306V17.2785C116.306 15.3956 116.639 14.8418 116.972 14.3988C117.527 13.5127 118.525 13.0697 119.746 13.0697C120.967 13.0697 122.076 13.6235 122.632 14.5095C122.964 15.1741 123.075 16.0602 123.075 16.5032C123.075 17.9431 123.075 25.807 123.075 25.807H127.626V15.9494C127.626 13.4019 126.849 11.6298 125.406 10.5222Z" fill="black"/>
  <path d="M103.099 9.74687C100.88 8.97155 98.4383 9.08236 96.2184 10.0792C94.7757 10.7437 93.4444 11.8513 92.6673 13.2912C91.8902 14.5095 91.5577 16.0602 91.5577 17.7215C91.5577 19.3829 91.8902 20.9336 92.6673 22.1519C93.4444 23.3703 94.4432 24.4779 95.7745 25.1425C97.1064 25.807 98.66 26.2501 100.103 26.2501C100.88 26.2501 101.656 26.1393 102.433 25.9178C103.099 25.6962 103.765 25.4748 104.431 25.1425C105.763 24.3671 106.873 23.3703 107.539 22.1519C108.315 20.9336 108.648 19.3829 108.648 17.7215C108.759 14.0665 106.651 10.9652 103.099 9.74687ZM104.431 17.9431C104.32 19.3829 103.876 20.6013 102.988 21.3766C102.323 21.9304 101.324 22.2627 100.103 22.3735C98.8823 22.3735 97.9943 22.0412 97.2172 21.3766C96.3299 20.6013 95.886 19.3829 95.7745 17.9431C95.6636 16.2817 96.33 14.9526 97.5504 14.0665C98.216 13.6235 99.1039 13.2912 99.9919 13.2912C100.991 13.2912 101.768 13.6235 102.544 14.0665C103.876 14.8418 104.542 16.2817 104.431 17.9431Z" fill="black"/>
  <path d="M86.3415 10.5221C85.4535 9.85761 84.3439 9.41458 83.012 9.30377C82.7904 9.30377 82.4572 9.30377 82.2356 9.30377C80.4597 9.30377 78.9061 10.0791 77.5742 11.6297L77.3525 11.962H76.9085C76.5754 11.4083 76.1314 10.9652 75.6874 10.6329C74.7995 9.96835 73.6899 9.52532 72.3579 9.41458C70.2496 9.19303 68.585 9.85761 67.1422 11.4083V9.74687H62.5921V26.0284H67.1422V17.5V17.2785C67.1422 15.5063 67.3642 15.0633 67.6971 14.5095C68.252 13.6234 69.2508 13.0696 70.3604 13.1804C71.4707 13.1804 72.4695 13.7342 73.0243 14.6203C73.4682 15.2848 73.4682 16.0601 73.4682 16.8354V25.9177H78.0181V17.1677C78.0181 15.5063 78.2398 14.9526 78.5729 14.3987C79.1277 13.5127 80.1265 13.0696 81.2368 13.0696C82.3464 13.0696 83.2343 13.6234 83.7891 14.5095C84.1223 15.0633 84.2331 15.7279 84.2331 16.1709C84.2331 16.3924 84.2331 16.6139 84.2331 16.7247V25.807H88.783V15.8386C88.783 14.9526 88.6722 14.0664 88.4499 13.2911C88.0066 12.1836 87.3403 11.1867 86.3415 10.5221Z" fill="black"/>
  <path d="M144.717 20.9336C144.051 21.5982 142.497 22.8166 140.388 22.9273C138.612 23.038 137.281 22.4843 136.282 21.4875C135.838 21.0444 135.505 20.3799 135.284 19.7153H147.824V19.6045C147.935 18.94 148.046 18.3862 148.046 17.7216C148.046 17.1678 147.935 16.3925 147.713 15.3957C147.158 13.5127 146.048 12.0729 144.606 10.9653C142.941 9.74694 141.387 9.41465 140.943 9.41465C137.725 8.86088 134.062 10.3007 132.176 13.2912C130.844 15.3957 130.955 17.5001 130.955 18.1646C130.955 18.94 131.066 21.3767 133.064 23.5919C135.394 26.1393 138.612 26.2501 139.611 26.3609C144.051 26.4716 147.047 23.7026 147.713 23.1489L144.717 20.9336ZM136.948 14.0666C137.614 13.6235 138.391 13.2912 139.39 13.2912C140.388 13.2912 141.165 13.6235 141.942 14.0666C142.608 14.6203 143.163 15.2849 143.495 16.0602H135.505C135.616 15.2849 136.171 14.5096 136.948 14.0666Z" fill="black"/>
  </g>
</svg>  